<?xml version="1.0" encoding="utf-8"?>
<!-- Generator: Adobe Illustrator 16.0.0, SVG Export Plug-In . SVG Version: 6.00 Build 0)  -->
<!DOCTYPE svg PUBLIC "-//W3C//DTD SVG 1.1//EN" "http://www.w3.org/Graphics/SVG/1.1/DTD/svg11.dtd">
<svg version="1.1" id="Layer_1" xmlns="http://www.w3.org/2000/svg" xmlns:xlink="http://www.w3.org/1999/xlink" x="0px" y="0px"
	 width="612px" height="792px" viewBox="0 0 612 792" enable-background="new 0 0 612 792" xml:space="preserve">
<path fill="#FFFFFF" d="M152.003,114.002c25.804,0.168,40.104,41.68,40.242,47.529c1.485,62.761-32.385,86.559-69.165,89.797
	c-38.266,3.374-72.763-33.361-77.052-82.05c-4.291-48.687,23.252-90.888,61.517-94.259c20.191-1.779,27.875-3.271,42.084,13.147
	c2.644,3.053,8.825,12.218,7.021,18.143C154.873,112.158,152.003,114.002,152.003,114.002z"/>
<g>
	<path fill="#5551A2" d="M156.835,105.63c0,0,0.047-0.203,0.138-0.597c0.062-0.195,0.069-0.447,0.083-0.727
		c0.031-0.274-0.003-0.607-0.029-0.973c-0.092-0.733-0.3-1.613-0.747-2.584c-0.445-0.97-1.06-2.037-1.843-3.187
		c-0.789-1.15-1.737-2.374-2.817-3.752c-0.136-0.176-0.274-0.354-0.413-0.535l-0.399-0.493c-0.281-0.357-0.568-0.72-0.86-1.091
		c-0.583-0.76-1.193-1.379-1.808-2.102c-1.321-1.381-2.706-2.855-4.34-4.17c-0.785-0.693-1.66-1.308-2.515-1.971
		c-0.91-0.592-1.794-1.248-2.786-1.775l-0.73-0.418l-0.365-0.212c-0.038-0.024,0.172,0.111,0.058,0.042l-0.052-0.027l-0.105-0.054
		l-0.211-0.108c-0.562-0.288-1.13-0.579-1.704-0.872c-1.079-0.453-1.985-0.87-3.168-1.253c-2.248-0.784-4.622-1.439-7.132-1.793
		c-4.997-0.769-10.42-0.72-15.916,0.239c-1.373,0.242-2.748,0.539-4.123,0.877c-0.692,0.147-1.374,0.354-2.061,0.543l-0.516,0.143
		l-0.258,0.072l-0.064,0.018c0.415-0.119,0.075-0.019,0.149-0.04l-0.141,0.048l-1.127,0.383c-0.753,0.255-1.508,0.512-2.265,0.769
		c-0.37,0.13-0.777,0.253-1.118,0.39l-0.946,0.419c-0.63,0.282-1.269,0.54-1.906,0.806c-0.32,0.137-0.636,0.252-0.961,0.404
		l-0.982,0.498c-5.27,2.579-10.305,5.892-14.835,9.857c-4.581,3.91-8.644,8.462-12.215,13.289l-1.33,1.814l-1.22,1.883l-1.242,1.859
		c-0.377,0.641-0.754,1.281-1.129,1.918c-0.377,0.638-0.753,1.274-1.128,1.908c-0.34,0.654-0.678,1.306-1.016,1.956
		c-0.341,0.649-0.682,1.295-1.021,1.939c-0.31,0.659-0.619,1.315-0.927,1.969c-0.307,0.656-0.612,1.309-0.917,1.959
		c-0.301,0.652-0.542,1.325-0.816,1.982c-0.267,0.661-0.532,1.318-0.796,1.972l-0.205,0.489c-0.022,0.065,0.103-0.352,0.04-0.144
		l-0.022,0.066l-0.045,0.133l-0.089,0.266l-0.356,1.061c-0.936,2.807-1.967,5.647-2.514,8.095c-0.339,1.268-0.674,2.517-1.004,3.749
		c-0.279,1.268-0.473,2.557-0.735,3.804c-0.237,1.254-0.515,2.486-0.709,3.708c-0.152,1.229-0.3,2.435-0.446,3.616
		c-0.146,1.185-0.334,2.348-0.439,3.489c-0.071,1.146-0.141,2.266-0.209,3.357c-0.077,1.098-0.153,2.168-0.226,3.208
		c-0.044,1.042-0.009,2.053-0.035,3.039c0.003,1.967-0.095,3.833-0.006,5.544c0.076,1.723,0.146,3.305,0.209,4.733
		c0.023,1.445,0.17,2.716,0.269,3.833c0.102,1.121,0.188,2.073,0.259,2.846c0.124,1.561,0.189,2.393,0.189,2.393
		s-0.316-0.77-0.908-2.213c-0.288-0.729-0.642-1.628-1.059-2.686c-0.208-0.532-0.432-1.104-0.67-1.714
		c-0.241-0.611-0.403-1.282-0.627-1.981c-0.415-1.413-0.874-2.978-1.375-4.681c-0.275-0.853-0.452-1.758-0.643-2.699
		c-0.194-0.943-0.396-1.92-0.604-2.929c-0.202-1.013-0.437-2.059-0.6-3.145c-0.134-1.091-0.273-2.214-0.415-3.366
		c-0.133-1.159-0.269-2.348-0.408-3.565c-0.096-1.221-0.113-2.474-0.174-3.758c-0.04-1.287-0.08-2.6-0.121-3.938
		c0.012-1.339,0.107-2.702,0.161-4.094c0.066-1.395,0.129-2.806,0.254-4.256c0.199-1.467,0.401-2.958,0.605-4.468
		c0.347-3.154,1.093-5.864,1.722-8.79l0.245-1.092l0.062-0.274l0.031-0.137l0.015-0.068c-0.051,0.163,0.086-0.299,0.08-0.278
		l0.17-0.572c0.237-0.761,0.475-1.527,0.714-2.296c0.247-0.767,0.464-1.55,0.742-2.315c0.283-0.763,0.567-1.53,0.853-2.3
		c0.29-0.769,0.567-1.548,0.873-2.319c0.334-0.759,0.67-1.521,1.007-2.286c0.343-0.763,0.687-1.529,1.032-2.297
		c0.385-0.75,0.771-1.503,1.158-2.258c0.389-0.755,0.779-1.513,1.17-2.273c0.432-0.739,0.864-1.479,1.298-2.222
		c0.443-0.738,0.888-1.478,1.333-2.219l1.461-2.156c3.885-5.777,8.631-11.148,14.021-15.849c5.43-4.649,11.527-8.615,18.042-11.449
		l1.208-0.553c0.415-0.176,0.86-0.332,1.289-0.497c0.866-0.32,1.73-0.64,2.592-0.958l1.294-0.46c0.413-0.134,0.78-0.221,1.171-0.333
		c0.771-0.213,1.539-0.425,2.305-0.637l1.147-0.317l0.143-0.04l0.292-0.083l0.08-0.017l0.318-0.07l0.636-0.138
		c0.847-0.182,1.687-0.378,2.539-0.512c1.691-0.318,3.394-0.512,5.081-0.679c6.752-0.659,13.436-0.046,19.487,1.639
		c3.023,0.847,5.889,1.982,8.503,3.366c1.281,0.634,2.658,1.512,3.847,2.262c0.524,0.375,1.043,0.746,1.558,1.113l0.494,0.345
		l0.402,0.328l0.793,0.654c2.093,1.738,3.919,3.58,5.438,5.476c1.553,1.87,2.809,3.771,3.903,5.591
		c0.51,0.938,1.075,1.871,1.471,2.71c0.206,0.424,0.409,0.84,0.607,1.249c0.104,0.218,0.208,0.433,0.31,0.646
		c0.09,0.199,0.179,0.396,0.267,0.592c0.729,1.586,1.429,3.098,1.931,4.527c1.067,2.83,1.338,5.347,1.026,6.965
		C157.434,105.017,156.785,105.604,156.835,105.63z"/>
</g>
<path fill="#5551A2" d="M128.168,118.232c0,0-6.803-11.079-2.147-20.215c3.03-5.943,15.976-7.853,15.976-7.853
	s5.867,15.401,1.675,20.593C137.88,117.932,128.168,118.232,128.168,118.232z"/>
<path fill="#5551A2" d="M111.785,123.353c0,0,3.435-15.788-9.165-22.376c-8.196-4.285-28.823,1.838-28.823,1.838
	s0.622,19.697,10.104,22.474C97.004,129.125,111.785,123.353,111.785,123.353z"/>
<g>
	<path fill="#5551A2" d="M185.225,140.481c-0.603-0.558-1.189-1.126-1.768-1.699l-1.745-1.633l-1.765-1.579l-1.785-1.511
		c-1.201-0.981-2.418-1.908-3.634-2.8l-1.857-1.273l-1.878-1.185l-1.9-1.091l-1.923-0.985l-1.938-0.884l-1.956-0.768
		c-0.666-0.208-1.321-0.424-1.966-0.654l-1.973-0.538c-0.667-0.134-1.33-0.259-1.982-0.408l-1.979-0.307l5.704-2.232
		c-1.11,1.604-2.132,3.302-3.423,4.783c-0.626,0.756-1.221,1.545-1.881,2.272c-0.667,0.722-1.335,1.446-2.021,2.154
		c-0.664,0.731-1.421,1.362-2.141,2.035c-0.739,0.651-1.447,1.343-2.237,1.933l-2.338,1.813c-0.793,0.586-1.627,1.114-2.448,1.662
		l-1.237,0.813l-1.284,0.737c-0.864,0.477-1.717,0.973-2.593,1.428c-1.788,0.837-3.553,1.723-5.42,2.375
		c-0.93,0.331-1.832,0.731-2.787,0.991l-2.839,0.83c-0.947,0.27-1.928,0.424-2.888,0.638l-1.445,0.296
		c-0.485,0.083-0.976,0.141-1.463,0.212c-0.976,0.13-1.947,0.283-2.925,0.368l-2.946,0.149c-0.977,0.071-1.961,0.036-2.941,0.006
		c-0.98-0.058-1.955-0.031-2.93-0.164l-2.91-0.325c-0.965-0.124-1.919-0.364-2.871-0.543l-1.423-0.292l-0.177-0.037l-0.289-0.051
		l-0.08-0.024l-0.321-0.096l-0.639-0.202l-2.554-0.821c-0.876-0.295-1.836-0.695-2.731-1.062c-0.907-0.374-1.825-0.735-2.635-1.157
		c-1.663-0.844-3.319-1.654-4.875-2.606l-1.182-0.689l-0.588-0.348l-0.292-0.178l-0.018-0.011c-0.044-0.019,0.072,0.027-0.103-0.045
		l-0.035-0.024l-0.07-0.049l-0.139-0.098l-1.113-0.779c-0.365-0.233-0.78-0.642-1.149-0.955c-0.793-0.668-1.375-1.314-2.013-1.982
		l-1.889-1.979c0.875,0.247,1.778,0.508,2.641,0.812c0.852,0.295,1.74,0.644,2.49,0.851c0.409,0.11,0.71,0.246,1.174,0.335
		l1.325,0.286l1.242,0.19l1.319,0.219c1.763,0.306,3.488,0.572,5.201,0.818c0.865,0.167,1.672,0.224,2.479,0.306
		c0.824,0.067,1.565,0.185,2.423,0.255l2.678,0.155l0.668,0.042l0.333,0.025l0.083,0.006c-0.393-0.065-0.098-0.018-0.181-0.033
		l0.019,0l0.039,0l0.153-0.003l1.224-0.022c1.623,0.014,3.238-0.132,4.837-0.241c0.799-0.026,1.596-0.207,2.387-0.298
		c0.792-0.113,1.584-0.168,2.366-0.35l2.343-0.448l2.312-0.571c0.384-0.096,0.77-0.177,1.151-0.283l1.133-0.359
		c0.753-0.245,1.512-0.459,2.256-0.722c1.478-0.562,2.97-1.062,4.401-1.732c1.466-0.577,2.847-1.345,4.267-2.021
		c0.694-0.371,1.368-0.779,2.054-1.164l1.031-0.575l0.99-0.643c0.654-0.438,1.336-0.835,1.985-1.281l1.915-1.385
		c0.662-0.434,1.245-0.966,1.863-1.455c0.604-0.507,1.263-0.955,1.825-1.509c0.579-0.536,1.175-1.057,1.772-1.579
		c0.591-0.529,1.12-1.117,1.688-1.672l0.842-0.845c0.277-0.286,0.52-0.598,0.793-0.888l1.607-1.775l2.815-3.111l2.89,0.878
		l2.633,0.801c0.858,0.318,1.703,0.669,2.546,1.006l2.451,1.172c0.791,0.434,1.573,0.877,2.339,1.338l2.218,1.488
		c0.706,0.536,1.415,1.06,2.093,1.618l1.958,1.742c0.619,0.611,1.24,1.212,1.827,1.844l1.692,1.938
		c0.535,0.666,1.053,1.342,1.556,2.022c0.479,0.701,0.97,1.384,1.427,2.089l1.288,2.158c0.401,0.732,0.777,1.478,1.153,2.213
		c0.355,0.751,0.69,1.508,1.019,2.263c0.314,0.772,0.599,1.552,0.883,2.317C184.765,138.909,185.002,139.69,185.225,140.481z"/>
</g>
<g>
	<path fill="#5551A2" d="M51.923,195.479c0,0,0.458,0.775,1.315,2.228c0.426,0.725,0.92,1.643,1.56,2.679
		c0.659,1.022,1.393,2.2,2.2,3.511c0.828,1.303,1.819,2.714,2.839,4.259c1.062,1.524,2.263,3.13,3.514,4.847
		c0.664,0.83,1.349,1.687,2.055,2.568c0.349,0.44,0.703,0.887,1.062,1.339c0.383,0.433,0.771,0.871,1.164,1.315
		c0.795,0.879,1.562,1.812,2.398,2.723c0.858,0.885,1.736,1.789,2.632,2.714c3.647,3.611,7.826,7.223,12.578,10.421
		c1.223,0.747,2.417,1.564,3.666,2.314c1.275,0.697,2.566,1.403,3.871,2.116c1.355,0.603,2.717,1.214,4.074,1.855
		c1.395,0.559,2.827,1.052,4.248,1.593c1.441,0.488,2.941,0.825,4.409,1.28c0.729,0.249,1.503,0.345,2.258,0.512
		c0.758,0.154,1.519,0.309,2.282,0.464l0.571,0.117l0.286,0.06c-0.398-0.067-0.064-0.013-0.132-0.025l0.08,0.01l0.16,0.021
		l1.285,0.161c0.858,0.107,1.718,0.215,2.581,0.323l0.645,0.08l0.567,0.03l1.135,0.065l2.273,0.145
		c6.383,0.203,12.972-0.446,19.327-1.947c6.379-1.438,12.539-3.766,18.19-6.748c0.7-0.384,1.428-0.725,2.105-1.139l2.014-1.259
		c1.385-0.778,2.633-1.724,3.906-2.628c1.312-0.86,2.437-1.917,3.631-2.886l0.885-0.736c0.287-0.253,0.551-0.525,0.827-0.786
		c0.549-0.526,1.096-1.052,1.641-1.574l0.819-0.782l0.739-0.844c0.495-0.561,0.987-1.118,1.477-1.674l0.37-0.417l0.185-0.207
		l0.092-0.104c-0.034,0.052,0.141-0.188-0.064,0.103l0.046-0.062l0.731-0.979c0.493-0.646,0.983-1.29,1.472-1.93
		c0.486-0.639,0.794-1.178,1.202-1.768c0.381-0.585,0.78-1.132,1.149-1.74c0.701-1.266,1.477-2.476,2.124-3.743
		c2.655-5.032,4.574-10.198,5.96-15.123c1.389-4.928,2.285-9.616,2.843-13.829c0.522-4.214,0.864-7.954,0.956-11.049
		c0.094-1.551,0.089-2.936,0.125-4.15c0.042-1.215,0.033-2.248,0.01-3.085c-0.008-1.686-0.013-2.585-0.013-2.585
		s0.26,0.862,0.747,2.479c0.243,0.812,0.523,1.817,0.802,3.013c0.298,1.193,0.644,2.57,0.914,4.133
		c0.146,0.782,0.3,1.606,0.462,2.471c0.122,0.872,0.249,1.784,0.381,2.734c0.066,0.478,0.134,0.964,0.203,1.461
		c0.044,0.499,0.089,1.007,0.135,1.524c0.082,1.036,0.204,2.114,0.26,3.229c0.27,4.464,0.189,9.556-0.491,15.113
		c-0.701,5.548-2.051,11.567-4.455,17.693c-0.562,1.546-1.325,3.039-2.01,4.592c-0.785,1.529-1.679,3.196-2.534,4.678
		c-0.424,0.684-0.851,1.371-1.28,2.062l-0.656,1.032l-0.041,0.064l-0.16,0.221l-0.101,0.135l-0.202,0.269l-0.405,0.538
		c-0.543,0.719-1.088,1.44-1.636,2.166l-0.828,1.09l-0.91,1.022c-2.384,2.784-5.069,5.387-7.986,7.75
		c-1.466,1.172-2.927,2.384-4.518,3.41c-0.788,0.527-1.578,1.056-2.369,1.585c-0.797,0.521-1.64,0.961-2.462,1.446
		c-6.601,3.841-13.89,6.615-21.391,8.383c-7.523,1.692-15.26,2.411-22.888,1.855c-0.988-0.095-1.975-0.19-2.959-0.285l-1.472-0.149
		l-0.734-0.076l-0.645-0.114c-0.855-0.153-1.709-0.308-2.56-0.461l-1.275-0.229l-0.53-0.095l-0.343-0.087l-0.685-0.176
		c-0.91-0.235-1.818-0.47-2.723-0.704c-0.899-0.25-1.814-0.43-2.681-0.768c-1.746-0.624-3.493-1.207-5.17-1.909
		c-6.741-2.774-12.681-6.606-17.656-10.834c-4.992-4.229-9.057-8.828-12.392-13.297c-3.343-4.477-5.809-8.927-7.867-12.88
		c-0.933-2.032-1.858-3.895-2.576-5.678c-0.694-1.798-1.378-3.408-1.885-4.922c-0.506-1.515-0.944-2.862-1.306-4.035
		c-0.351-1.173-0.59-2.182-0.814-2.995C52.143,196.351,51.923,195.479,51.923,195.479z"/>
</g>
<g>
	<path d="M97.271,71.326c0,0-0.356-0.348-0.898-0.993c-0.55-0.641-1.29-1.577-2.088-2.739c-1.613-2.318-3.422-5.558-4.904-8.94
		c-1.483-3.382-2.638-6.908-3.244-9.667c-0.311-1.376-0.496-2.555-0.591-3.395c-0.104-0.836-0.117-1.334-0.117-1.334
		s0.357,0.348,0.901,0.992c0.552,0.64,1.292,1.576,2.091,2.738c1.615,2.317,3.421,5.558,4.899,8.942
		c1.479,3.384,2.63,6.912,3.238,9.669c0.312,1.375,0.498,2.554,0.595,3.393C97.257,70.829,97.271,71.326,97.271,71.326z"/>
</g>
<g>
	<path d="M89.151,34.271c0,0,0.075,0.175,0.214,0.502c0.14,0.326,0.307,0.827,0.441,1.479c0.278,1.291,0.363,3.306-0.633,5.541
		c-0.515,1.095-1.324,2.212-2.463,3.156c-0.306,0.231-0.561,0.431-0.958,0.666c-0.303,0.17-0.544,0.347-0.972,0.516
		c-0.794,0.359-1.556,0.569-2.42,0.688c-0.852,0.111-1.739,0.078-2.635-0.052c-0.891-0.156-1.773-0.46-2.609-0.891
		c-0.832-0.441-1.599-1.028-2.271-1.719c-0.325-0.355-0.648-0.718-0.906-1.129c-0.138-0.2-0.276-0.398-0.387-0.614l-0.174-0.318
		l-0.086-0.16l-0.043-0.08l-0.021-0.04l-0.011-0.02l-0.054-0.119c-0.146-0.382-0.271-0.618-0.437-1.206
		c-0.174-0.532-0.248-0.998-0.314-1.475c-0.102-0.959-0.073-1.924,0.12-2.848c0.193-0.921,0.531-1.793,0.972-2.583
		c0.472-0.774,1.013-1.479,1.643-2.065c1.242-1.169,2.823-1.882,4.179-2.149c0.784-0.152,1.472-0.219,2.15-0.169
		c0.672,0.008,1.308,0.13,1.896,0.271c2.358,0.661,3.855,2.012,4.673,3.049c0.417,0.521,0.696,0.967,0.859,1.283
		C89.063,34.102,89.151,34.271,89.151,34.271z M89.151,34.271c0,0-0.092-0.166-0.264-0.478c-0.079-0.16-0.202-0.341-0.352-0.551
		c-0.139-0.217-0.322-0.45-0.551-0.69c-0.452-0.479-1.053-1.029-1.872-1.435c-0.804-0.417-1.801-0.724-2.884-0.74
		c-0.541,0.004-1.096,0.032-1.647,0.163c-0.55,0.112-1.105,0.356-1.565,0.589c-1.109,0.574-1.93,1.394-2.555,2.377
		c-0.617,0.98-0.925,2.117-0.999,3.225c-0.022,0.559,0.024,1.111,0.117,1.651c0.074,0.266,0.122,0.55,0.195,0.738
		c0.016,0.151,0.233,0.6,0.362,0.925c-0.085-0.194-0.02-0.047-0.038-0.088l0.006,0.011l0.012,0.023l0.024,0.046l0.047,0.091
		l0.094,0.185c0.055,0.127,0.134,0.24,0.209,0.354c0.14,0.238,0.316,0.447,0.474,0.673c0.359,0.414,0.751,0.808,1.198,1.146
		c0.9,0.654,1.976,1.144,3.127,1.29c0.554,0.061,1.196,0.093,1.705,0.019c0.24,0.003,0.612-0.115,0.931-0.191
		c0.209-0.047,0.537-0.167,0.792-0.264c1.077-0.441,1.999-1.172,2.664-2.023c0.678-0.846,1.075-1.812,1.265-2.697
		c0.208-0.89,0.166-1.704,0.085-2.357c-0.039-0.33-0.102-0.619-0.181-0.864c-0.066-0.249-0.128-0.459-0.201-0.623
		C89.221,34.448,89.151,34.271,89.151,34.271z"/>
</g>
<g>
	<path fill="#5551A2" d="M16.722,110.304c0,0,0.472,2.699,0.951,7.387c0.19,2.363,0.668,5.141,0.999,8.31
		c0.101,0.791,0.182,1.603,0.268,2.439c0.121,0.841,0.245,1.707,0.372,2.595c0.258,1.773,0.465,3.628,0.715,5.558
		c0.292,1.919,0.596,3.919,0.911,5.989c0.276,2.063,0.643,4.184,1.032,6.355c0.198,1.085,0.371,2.185,0.54,3.297
		c0.18,1.111,0.431,2.228,0.646,3.358c0.482,2.255,0.798,4.573,1.365,6.893c0.975,4.661,2.087,9.434,3.321,14.248
		c0.314,1.202,0.629,2.408,0.944,3.618c0.307,1.211,0.708,2.402,1.032,3.614c0.341,1.208,0.684,2.418,1.026,3.629l1.132,3.605
		c1.455,4.825,3.148,9.572,4.793,14.265c0.448,1.159,0.895,2.313,1.339,3.463c0.426,1.157,0.83,2.319,1.302,3.444
		c0.907,2.267,1.81,4.508,2.731,6.702c1.818,4.402,3.725,8.608,5.564,12.608c0.933,1.993,1.844,3.938,2.768,5.802
		c0.877,1.895,1.817,3.672,2.676,5.417c1.755,3.463,3.404,6.652,4.929,9.458c1.503,2.824,2.875,5.273,4.013,7.306
		c2.285,4.055,3.687,6.408,3.687,6.408s-0.608-0.316-1.697-0.992c-1.083-0.68-2.663-1.707-4.56-3.15
		c-1.914-1.428-4.163-3.259-6.621-5.495c-2.476-2.225-5.116-4.887-7.881-7.914c-2.745-3.041-5.556-6.485-8.349-10.274
		c-2.742-3.818-5.529-7.947-8.064-12.425c-1.341-2.202-2.514-4.54-3.734-6.896c-1.235-2.349-2.329-4.802-3.442-7.271
		c-2.139-4.974-4.135-10.117-5.733-15.389l-1.197-3.952c-0.342-1.333-0.684-2.664-1.025-3.992c-0.729-2.645-1.215-5.337-1.753-7.991
		c-0.594-2.643-0.92-5.316-1.297-7.94c-0.422-2.617-0.618-5.234-0.834-7.797c-0.248-2.559-0.337-5.089-0.391-7.562
		c-0.087-2.47-0.094-4.885,0.011-7.238c0.056-4.696,0.564-9.124,0.979-13.175c0.319-2.026,0.592-3.96,0.912-5.792
		c0.159-0.914,0.313-1.804,0.463-2.67c0.179-0.869,0.367-1.712,0.561-2.524c0.386-1.625,0.721-3.14,1.086-4.528
		c0.178-0.692,0.348-1.356,0.51-1.99c0.196-0.621,0.383-1.212,0.56-1.774C15.709,112.85,16.722,110.304,16.722,110.304z"/>
</g>
<g>
	<path fill="#5551A2" d="M30.563,182.868c0,0,0.71,0.243,2.042,0.698c1.332,0.492,3.29,1.055,5.751,1.765
		c1.255,0.312,2.645,0.657,4.158,1.033c1.528,0.315,3.161,0.709,4.927,1.031c3.533,0.649,7.532,1.248,11.913,1.652
		c4.378,0.402,9.126,0.684,14.142,0.604c1.252,0.004,2.521-0.014,3.805-0.08c1.283-0.052,2.58-0.075,3.889-0.15
		c2.619-0.188,5.287-0.354,7.986-0.692c5.4-0.601,10.928-1.533,16.461-2.761c1.387-0.289,2.773-0.598,4.149-0.976
		c1.378-0.365,2.766-0.696,4.141-1.087c2.739-0.83,5.493-1.617,8.185-2.604c2.711-0.916,5.359-2.009,7.979-3.112
		c1.288-0.604,2.573-1.208,3.854-1.809l1.906-0.914l1.861-0.993c5.002-2.526,9.667-5.435,14.292-8.002
		c2.277-1.353,4.545-2.635,6.765-3.902c1.086-0.671,2.195-1.285,3.275-1.919c0.54-0.317,1.092-0.61,1.633-0.913
		c0.538-0.31,1.055-0.643,1.579-0.96c2.055-1.323,4.203-2.421,6.111-3.735c1.958-1.246,3.916-2.382,5.717-3.594
		c1.798-1.213,3.594-2.307,5.265-3.408c1.657-1.118,3.227-2.195,4.755-3.167c1.536-0.963,2.89-1.968,4.206-2.841
		c1.316-0.874,2.527-1.686,3.655-2.396c2.162-1.508,3.92-2.672,5.163-3.435c1.227-0.778,1.915-1.172,1.915-1.172l1.296,1.107
		c0,0-0.308,0.723-0.95,2.04c-0.625,1.331-1.604,3.243-2.932,5.641c-1.43,2.305-3.138,5.171-5.397,8.227
		c-1.125,1.534-2.378,3.122-3.696,4.814c-1.37,1.637-2.867,3.315-4.453,5.054c-3.205,3.44-6.907,6.977-11.114,10.392
		c-2.056,1.771-4.349,3.358-6.655,5.034c-1.152,0.842-2.395,1.574-3.627,2.347c-1.236,0.769-2.493,1.531-3.784,2.258
		c-1.317,0.683-2.638,1.384-3.99,2.046c-0.676,0.331-1.345,0.681-2.035,0.996c-0.699,0.296-1.4,0.593-2.104,0.891
		c-1.406,0.596-2.817,1.198-4.25,1.762c-1.453,0.516-2.914,1.034-4.38,1.554l-2.203,0.767l-2.242,0.68
		c-1.492,0.456-2.987,0.913-4.486,1.37c-3.044,0.765-6.024,1.729-9.095,2.38c-3.03,0.786-6.109,1.36-9.158,1.967
		c-1.53,0.279-3.069,0.497-4.594,0.745c-1.522,0.262-3.052,0.452-4.577,0.621c-3.04,0.399-6.072,0.638-9.064,0.821
		c-1.497,0.082-2.989,0.101-4.464,0.152c-1.475,0.063-2.942,0.057-4.396,0.037c-5.809-0.009-11.41-0.365-16.669-1.027
		c-5.263-0.61-10.182-1.556-14.668-2.572c-1.118-0.271-2.212-0.535-3.282-0.793c-1.064-0.278-2.095-0.593-3.102-0.876
		c-2.019-0.545-3.896-1.211-5.666-1.781c-1.765-0.593-3.388-1.24-4.896-1.788c-1.48-0.628-2.84-1.206-4.068-1.727
		c-2.437-1.146-4.33-2.041-5.548-2.726c-1.243-0.661-1.906-1.013-1.906-1.013L30.563,182.868z"/>
</g>
<g>
	<path fill="#5551A2" d="M170.698,63.689c0,0,2.289,1.506,6.031,4.371c0.467,0.358,0.959,0.736,1.475,1.133
		c0.497,0.427,1.017,0.874,1.559,1.339c1.095,0.928,2.237,1.977,3.485,3.088c0.625,0.555,1.262,1.138,1.906,1.748
		c0.619,0.624,1.255,1.265,1.909,1.923c1.312,1.317,2.644,2.746,4.066,4.224c2.662,3.083,5.615,6.419,8.353,10.236
		c1.434,1.868,2.812,3.851,4.157,5.925c1.373,2.057,2.75,4.182,4.012,6.422c1.292,2.225,2.631,4.482,3.785,6.868
		c1.194,2.367,2.458,4.745,3.486,7.25c1.079,2.483,2.224,4.968,3.142,7.554c0.482,1.284,0.964,2.571,1.447,3.859l1.284,3.925
		c1.711,5.236,3.022,10.595,4.12,15.896c0.502,2.661,1.011,5.298,1.345,7.931c0.35,2.63,0.728,5.218,0.891,7.792
		c0.488,5.122,0.569,10.103,0.511,14.803c-0.118,4.707-0.448,9.139-0.955,13.205c-0.531,4.065-1.169,7.76-1.924,11.002
		c-0.732,3.241-1.526,6.03-2.277,8.298c-0.728,2.27-1.435,4.017-1.932,5.194c-0.505,1.178-0.822,1.785-0.822,1.785
		s-0.199-2.732-0.651-7.365c-0.231-2.316-0.511-5.11-0.897-8.286c-0.358-3.174-0.833-6.732-1.38-10.576
		c-0.296-1.923-0.544-3.918-0.911-5.973c-0.31-2.056-0.678-4.173-1.056-6.341c-0.785-4.333-1.632-8.872-2.665-13.521
		c-0.502-2.327-1.047-4.68-1.603-7.058c-0.258-1.192-0.593-2.376-0.907-3.569c-0.294-1.196-0.59-2.398-0.887-3.605
		c-1.341-4.788-2.673-9.648-4.246-14.437l-1.137-3.604c-0.414-1.188-0.827-2.376-1.239-3.562c-0.429-1.18-0.783-2.385-1.225-3.554
		c-0.435-1.173-0.868-2.342-1.299-3.506c-1.748-4.652-3.571-9.201-5.442-13.58c-0.865-2.226-1.934-4.307-2.832-6.431
		c-0.472-1.05-0.905-2.109-1.395-3.123c-0.499-1.008-0.987-2.009-1.447-3.012c-0.925-2.003-1.839-3.951-2.795-5.8
		c-0.928-1.876-1.825-3.689-2.686-5.43c-0.9-1.724-1.793-3.364-2.598-4.964c-0.405-0.801-0.799-1.581-1.183-2.34
		c-0.408-0.734-0.807-1.446-1.178-2.152c-1.545-2.787-2.746-5.337-3.943-7.382C171.858,66.171,170.698,63.689,170.698,63.689z"/>
</g>
<g>
	<path fill="#5551A2" d="M97.271,71.326c0,0-0.356-0.348-0.898-0.993c-0.55-0.641-1.29-1.577-2.088-2.739
		c-1.613-2.318-3.422-5.558-4.904-8.94c-1.483-3.382-2.638-6.908-3.244-9.667c-0.311-1.376-0.496-2.555-0.591-3.395
		c-0.104-0.836-0.117-1.334-0.117-1.334s0.357,0.348,0.901,0.992c0.552,0.64,1.292,1.576,2.091,2.738
		c1.615,2.317,3.421,5.558,4.899,8.942c1.479,3.384,2.63,6.912,3.238,9.669c0.312,1.375,0.498,2.554,0.595,3.393
		C97.257,70.829,97.271,71.326,97.271,71.326z"/>
</g>
<g>
	<circle fill="#FFFFFF" cx="82.15" cy="37.566" r="7.738"/>
	<path fill="#5551A2" d="M89.151,34.271c0,0,0.075,0.175,0.214,0.502c0.14,0.326,0.307,0.827,0.441,1.479
		c0.278,1.291,0.363,3.306-0.633,5.541c-0.515,1.095-1.324,2.212-2.463,3.156c-0.306,0.231-0.561,0.431-0.958,0.666
		c-0.303,0.17-0.544,0.347-0.972,0.516c-0.794,0.359-1.556,0.569-2.42,0.688c-0.852,0.111-1.739,0.078-2.635-0.052
		c-0.891-0.156-1.773-0.46-2.609-0.891c-0.832-0.441-1.599-1.028-2.271-1.719c-0.325-0.355-0.648-0.718-0.906-1.129
		c-0.138-0.2-0.276-0.398-0.387-0.614l-0.174-0.318l-0.086-0.16l-0.043-0.08l-0.021-0.04l-0.011-0.02l-0.054-0.119
		c-0.146-0.382-0.271-0.618-0.437-1.206c-0.174-0.532-0.248-0.998-0.314-1.475c-0.102-0.959-0.073-1.924,0.12-2.848
		c0.193-0.921,0.531-1.793,0.972-2.583c0.472-0.774,1.013-1.479,1.643-2.065c1.242-1.169,2.823-1.882,4.179-2.149
		c0.784-0.152,1.472-0.219,2.15-0.169c0.672,0.008,1.308,0.13,1.896,0.271c2.358,0.661,3.855,2.012,4.673,3.049
		c0.417,0.521,0.696,0.967,0.859,1.283C89.063,34.102,89.151,34.271,89.151,34.271z M89.151,34.271c0,0-0.092-0.166-0.264-0.478
		c-0.079-0.16-0.202-0.341-0.352-0.551c-0.139-0.217-0.322-0.45-0.551-0.69c-0.452-0.479-1.053-1.029-1.872-1.435
		c-0.804-0.417-1.801-0.724-2.884-0.74c-0.541,0.004-1.096,0.032-1.647,0.163c-0.55,0.112-1.105,0.356-1.565,0.589
		c-1.109,0.574-1.93,1.394-2.555,2.377c-0.617,0.98-0.925,2.117-0.999,3.225c-0.022,0.559,0.024,1.111,0.117,1.651
		c0.074,0.266,0.122,0.55,0.195,0.738c0.016,0.151,0.233,0.6,0.362,0.925c-0.085-0.194-0.02-0.047-0.038-0.088l0.006,0.011
		l0.012,0.023l0.024,0.046l0.047,0.091l0.094,0.185c0.055,0.127,0.134,0.24,0.209,0.354c0.14,0.238,0.316,0.447,0.474,0.673
		c0.359,0.414,0.751,0.808,1.198,1.146c0.9,0.654,1.976,1.144,3.127,1.29c0.554,0.061,1.196,0.093,1.705,0.019
		c0.24,0.003,0.612-0.115,0.931-0.191c0.209-0.047,0.537-0.167,0.792-0.264c1.077-0.441,1.999-1.172,2.664-2.023
		c0.678-0.846,1.075-1.812,1.265-2.697c0.208-0.89,0.166-1.704,0.085-2.357c-0.039-0.33-0.102-0.619-0.181-0.864
		c-0.066-0.249-0.128-0.459-0.201-0.623C89.221,34.448,89.151,34.271,89.151,34.271z"/>
</g>
<text transform="matrix(1 0 0 1 251.7061 171.2549)" fill="#5551A2" font-family="'ImpressBT-Regular'" font-size="79.6249">Glaze Hub</text>
</svg>
