<?xml version="1.0" encoding="utf-8"?>
<!-- Generator: Adobe Illustrator 16.0.0, SVG Export Plug-In . SVG Version: 6.00 Build 0)  -->
<!DOCTYPE svg PUBLIC "-//W3C//DTD SVG 1.1//EN" "http://www.w3.org/Graphics/SVG/1.1/DTD/svg11.dtd">
<svg version="1.1" id="Layer_1" xmlns="http://www.w3.org/2000/svg" xmlns:xlink="http://www.w3.org/1999/xlink" x="0px" y="0px"
	 width="612px" height="252px" viewBox="0 0 612 252" enable-background="new 0 0 612 252" xml:space="preserve">
<path fill="#FFFFFF" d="M153.179,89.933c26.788,0.174,41.634,43.271,41.777,49.342c1.542,65.156-33.62,89.861-71.802,93.223
	c-39.725,3.503-75.539-34.633-79.991-85.18c-4.455-50.544,24.139-94.355,63.863-97.854c20.961-1.847,28.938-3.396,43.69,13.647
	c2.744,3.169,9.16,12.685,7.289,18.835C156.157,88.017,153.179,89.933,153.179,89.933z"/>
<g>
	<path fill="#5551A2" d="M158.195,81.24c0,0,0.049-0.211,0.143-0.62c0.065-0.203,0.072-0.464,0.085-0.755
		c0.033-0.284-0.002-0.63-0.03-1.01c-0.095-0.761-0.311-1.674-0.775-2.683c-0.462-1.007-1.101-2.115-1.913-3.309
		c-0.819-1.193-1.803-2.464-2.924-3.895c-0.142-0.184-0.284-0.369-0.429-0.556l-0.415-0.512c-0.292-0.37-0.59-0.748-0.893-1.132
		c-0.605-0.789-1.239-1.431-1.877-2.182c-1.371-1.434-2.809-2.964-4.505-4.33c-0.815-0.72-1.724-1.357-2.611-2.046
		c-0.945-0.615-1.863-1.296-2.892-1.843l-0.758-0.434l-0.379-0.22c-0.039-0.024,0.178,0.116,0.06,0.043l-0.055-0.028l-0.109-0.056
		l-0.219-0.112c-0.584-0.299-1.174-0.601-1.769-0.906c-1.121-0.47-2.061-0.903-3.289-1.301c-2.333-0.814-4.798-1.495-7.404-1.861
		c-5.188-0.798-10.817-0.748-16.523,0.248c-1.425,0.252-2.852,0.56-4.28,0.911c-0.718,0.153-1.426,0.368-2.14,0.564l-0.535,0.148
		l-0.268,0.074l-0.067,0.019c0.432-0.124,0.078-0.021,0.155-0.042l-0.146,0.049l-1.17,0.397c-0.782,0.266-1.565,0.532-2.351,0.799
		c-0.384,0.135-0.807,0.263-1.16,0.404l-0.982,0.435c-0.654,0.292-1.317,0.56-1.979,0.837c-0.332,0.142-0.661,0.262-0.998,0.42
		l-1.02,0.517c-5.47,2.678-10.698,6.117-15.4,10.234c-4.755,4.059-8.974,8.785-12.681,13.795l-1.381,1.884l-1.266,1.955
		c-0.431,0.645-0.861,1.289-1.29,1.93c-0.392,0.666-0.783,1.33-1.172,1.992c-0.392,0.662-0.782,1.322-1.171,1.98
		c-0.353,0.679-0.704,1.356-1.054,2.03c-0.354,0.674-0.708,1.345-1.06,2.014c-0.322,0.684-0.643,1.365-0.962,2.044
		c-0.318,0.681-0.636,1.358-0.951,2.034c-0.312,0.677-0.563,1.375-0.847,2.057c-0.277,0.686-0.552,1.369-0.826,2.048l-0.212,0.507
		c-0.023,0.067,0.107-0.366,0.041-0.149l-0.023,0.069l-0.046,0.138l-0.093,0.276l-0.371,1.101c-0.971,2.915-2.042,5.863-2.61,8.404
		c-0.352,1.316-0.7,2.613-1.042,3.892c-0.289,1.316-0.491,2.654-0.763,3.949c-0.246,1.302-0.534,2.581-0.736,3.849
		c-0.158,1.276-0.312,2.527-0.463,3.754c-0.152,1.23-0.347,2.438-0.456,3.622c-0.074,1.19-0.147,2.353-0.217,3.485
		c-0.081,1.141-0.159,2.251-0.235,3.331c-0.046,1.082-0.01,2.132-0.036,3.155c0.003,2.042-0.098,3.979-0.006,5.756
		c0.079,1.788,0.152,3.431,0.217,4.914c0.024,1.499,0.176,2.819,0.279,3.979c0.106,1.163,0.196,2.152,0.269,2.954
		c0.127,1.62,0.196,2.484,0.196,2.484s-0.328-0.799-0.943-2.297c-0.298-0.758-0.667-1.691-1.099-2.789
		c-0.216-0.553-0.448-1.146-0.696-1.779c-0.25-0.635-0.419-1.331-0.651-2.057c-0.431-1.467-0.908-3.092-1.427-4.859
		c-0.286-0.886-0.47-1.825-0.667-2.802c-0.202-0.979-0.411-1.993-0.626-3.041c-0.209-1.052-0.454-2.138-0.623-3.266
		c-0.14-1.133-0.283-2.298-0.431-3.494c-0.138-1.204-0.279-2.438-0.423-3.702c-0.1-1.268-0.118-2.568-0.181-3.9
		c-0.041-1.336-0.083-2.7-0.125-4.089c0.013-1.39,0.111-2.804,0.167-4.25c0.069-1.448,0.134-2.913,0.264-4.418
		c0.207-1.524,0.416-3.07,0.628-4.639c0.36-3.274,1.135-6.087,1.788-9.125l0.254-1.134l0.064-0.284l0.032-0.143l0.016-0.071
		c-0.053,0.169,0.089-0.311,0.083-0.289l0.177-0.594c0.246-0.791,0.493-1.585,0.741-2.384c0.257-0.796,0.482-1.609,0.771-2.403
		c0.294-0.792,0.589-1.588,0.885-2.388c0.301-0.798,0.588-1.607,0.906-2.408c0.347-0.788,0.696-1.579,1.045-2.373
		c0.356-0.792,0.713-1.587,1.072-2.385c0.399-0.779,0.8-1.561,1.202-2.344c0.404-0.784,0.809-1.571,1.215-2.36
		c0.448-0.767,0.897-1.536,1.348-2.307c0.46-0.766,0.922-1.534,1.384-2.304l1.516-2.238c4.033-5.998,8.96-11.574,14.557-16.454
		c5.637-4.827,11.966-8.944,18.73-11.886l1.254-0.574c0.43-0.183,0.894-0.345,1.338-0.516c0.899-0.333,1.796-0.664,2.691-0.995
		l1.344-0.477c0.429-0.139,0.809-0.229,1.215-0.346c0.8-0.221,1.598-0.442,2.393-0.662l1.191-0.329l0.149-0.041l0.303-0.085
		l0.083-0.018l0.331-0.072l0.66-0.144c0.88-0.188,1.751-0.393,2.636-0.532c1.756-0.33,3.523-0.531,5.274-0.704
		c7.009-0.685,13.949-0.047,20.23,1.702c3.139,0.879,6.114,2.058,8.827,3.494c1.33,0.658,2.76,1.569,3.994,2.349
		c0.544,0.389,1.083,0.774,1.617,1.156l0.512,0.358l0.417,0.341l0.823,0.679c2.172,1.804,4.068,3.716,5.645,5.684
		c1.613,1.942,2.916,3.915,4.052,5.805c0.53,0.974,1.116,1.942,1.527,2.814c0.214,0.44,0.425,0.872,0.631,1.296
		c0.108,0.226,0.215,0.45,0.321,0.671c0.093,0.207,0.186,0.412,0.277,0.614c0.757,1.646,1.484,3.216,2.004,4.7
		c1.108,2.938,1.389,5.551,1.065,7.23C158.817,80.603,158.143,81.213,158.195,81.24z"/>
</g>
<path fill="#5551A2" d="M128.435,94.323c0,0-7.062-11.501-2.229-20.986c3.146-6.17,16.586-8.153,16.586-8.153
	s6.09,15.989,1.737,21.378C138.517,94.012,128.435,94.323,128.435,94.323z"/>
<path fill="#5551A2" d="M111.426,99.639c0,0,3.566-16.39-9.515-23.229c-8.509-4.449-29.922,1.907-29.922,1.907
	s0.646,20.448,10.49,23.332C96.083,105.631,111.426,99.639,111.426,99.639z"/>
<g>
	<path fill="#5551A2" d="M187.668,117.42c-0.626-0.58-1.235-1.169-1.835-1.764l-1.811-1.695l-1.832-1.64l-1.854-1.568
		c-1.246-1.019-2.511-1.98-3.773-2.907l-1.928-1.322l-1.95-1.23l-1.973-1.132l-1.997-1.022l-2.012-0.917l-2.03-0.797
		c-0.691-0.217-1.372-0.44-2.041-0.68l-2.049-0.559c-0.692-0.14-1.381-0.269-2.058-0.423l-2.055-0.319l5.922-2.317
		c-1.154,1.665-2.215,3.427-3.545,4.973c-0.644,0.79-1.267,1.605-1.956,2.357l-2.104,2.23c-0.689,0.759-1.475,1.414-2.223,2.113
		c-0.767,0.676-1.502,1.394-2.322,2.006l-2.428,1.882c-0.823,0.608-1.689,1.157-2.542,1.725l-1.284,0.844l-1.332,0.765
		c-0.897,0.495-1.783,1.011-2.692,1.482c-1.856,0.869-3.689,1.789-5.627,2.466c-0.965,0.344-1.902,0.759-2.893,1.028l-2.948,0.861
		c-0.984,0.278-1.999,0.448-2.995,0.672l-1.5,0.313c-0.504,0.085-1.014,0.142-1.52,0.213c-1.014,0.131-2.023,0.283-3.039,0.374
		l-3.058,0.154c-1.014,0.073-2.036,0.037-3.053,0.006c-1.018-0.06-2.03-0.032-3.042-0.17l-3.021-0.337
		c-1.002-0.128-1.993-0.378-2.981-0.564l-1.478-0.303l-0.567-0.116l-0.333-0.1l-0.664-0.209l-2.651-0.852
		c-0.91-0.306-1.906-0.722-2.835-1.102c-0.941-0.389-1.895-0.764-2.735-1.201c-1.726-0.876-3.446-1.717-5.061-2.705l-1.227-0.715
		l-0.61-0.361l-0.304-0.185l-0.019-0.012c-0.046-0.02,0.075,0.028-0.107-0.047l-0.036-0.025l-0.072-0.051l-0.145-0.101l-1.156-0.809
		c-0.379-0.242-0.809-0.667-1.192-0.991c-0.824-0.694-1.428-1.364-2.09-2.058l-1.961-2.055c0.908,0.256,1.846,0.527,2.742,0.843
		c0.884,0.306,1.806,0.668,2.585,0.883c0.424,0.114,0.737,0.255,1.219,0.348l1.376,0.297l1.289,0.198l1.37,0.228
		c1.831,0.317,3.621,0.593,5.399,0.85c0.898,0.173,1.736,0.232,2.574,0.318c0.856,0.07,1.625,0.192,2.516,0.265l2.78,0.161
		l0.694,0.044l0.346,0.027l0.043,0.003l0.021,0.001c-0.085-0.015,0.222,0.035-0.186-0.032l0.08-0.001l0.159-0.003l1.271-0.023
		c1.685,0.015,3.362-0.138,5.021-0.25c0.829-0.026,1.656-0.214,2.479-0.31c0.822-0.117,1.644-0.174,2.456-0.363l2.432-0.465
		l2.398-0.602c0.801-0.176,1.588-0.415,2.371-0.668c0.782-0.251,1.572-0.464,2.344-0.739c1.535-0.583,3.084-1.103,4.569-1.798
		c1.522-0.599,2.955-1.396,4.429-2.099c0.721-0.385,1.42-0.809,2.133-1.208l1.07-0.598l1.028-0.667
		c0.679-0.454,1.387-0.867,2.06-1.33l1.988-1.438c0.687-0.45,1.292-1.002,1.935-1.511c0.626-0.526,1.311-0.991,1.895-1.566
		l1.834-1.645c0.61-0.552,1.155-1.167,1.75-1.738l0.879-0.873c0.289-0.295,0.543-0.618,0.827-0.919l1.668-1.843l2.923-3.229l3,0.912
		l2.734,0.832c0.891,0.33,1.768,0.695,2.644,1.044l2.545,1.217c0.82,0.45,1.632,0.911,2.428,1.389l2.302,1.545
		c0.732,0.557,1.469,1.1,2.173,1.68l2.033,1.809c0.643,0.634,1.288,1.258,1.897,1.914l1.757,2.012
		c0.555,0.691,1.093,1.394,1.615,2.099c0.498,0.728,1.007,1.437,1.482,2.168l1.337,2.24c0.417,0.761,0.807,1.534,1.197,2.298
		c0.369,0.779,0.717,1.565,1.057,2.349c0.326,0.801,0.622,1.611,0.917,2.405C187.19,115.788,187.438,116.599,187.668,117.42z"/>
</g>
<g>
	<path fill="#5551A2" d="M49.282,174.516c0,0,0.475,0.805,1.365,2.312c0.442,0.753,0.956,1.706,1.619,2.781
		c0.684,1.062,1.446,2.283,2.284,3.646c0.86,1.353,1.888,2.817,2.948,4.421c1.102,1.583,2.349,3.249,3.648,5.032
		c0.689,0.861,1.401,1.751,2.133,2.666c0.362,0.457,0.729,0.921,1.102,1.391c0.397,0.449,0.8,0.904,1.208,1.365
		c0.825,0.912,1.622,1.882,2.489,2.826c0.891,0.918,1.802,1.858,2.733,2.818c3.786,3.749,8.124,7.498,13.058,10.818
		c1.27,0.775,2.509,1.624,3.806,2.403c1.324,0.724,2.664,1.456,4.018,2.196c1.407,0.626,2.821,1.261,4.23,1.927
		c1.448,0.579,2.935,1.092,4.41,1.653c1.496,0.507,3.054,0.856,4.578,1.329c0.756,0.259,1.56,0.357,2.344,0.531
		c0.788,0.16,1.577,0.32,2.37,0.481l0.593,0.122l0.297,0.061c-0.414-0.068-0.067-0.013-0.138-0.025l0.083,0.01l0.167,0.021
		l1.334,0.167c0.891,0.111,1.784,0.224,2.679,0.336l0.669,0.082l0.589,0.032l1.178,0.067c0.785,0.05,1.572,0.101,2.36,0.15
		c6.627,0.211,13.467-0.464,20.065-2.021c6.622-1.493,13.017-3.91,18.884-7.006c0.727-0.398,1.482-0.752,2.185-1.182
		c0.699-0.438,1.396-0.873,2.091-1.308c1.438-0.808,2.733-1.789,4.055-2.728c1.362-0.894,2.53-1.99,3.77-2.996l0.919-0.764
		c0.297-0.263,0.571-0.546,0.858-0.816c0.57-0.547,1.138-1.092,1.703-1.634l0.851-0.812l0.767-0.876
		c0.514-0.582,1.025-1.161,1.534-1.738l0.383-0.432l0.192-0.216l0.096-0.107c-0.035,0.053,0.146-0.196-0.067,0.105l0.048-0.063
		l0.759-1.017c0.512-0.672,1.021-1.339,1.527-2.003c0.278-0.346,0.444-0.631,0.65-0.935l0.598-0.9
		c0.395-0.608,0.81-1.176,1.193-1.808c0.728-1.313,1.533-2.569,2.204-3.886c2.757-5.225,4.749-10.588,6.188-15.699
		c1.442-5.116,2.371-9.983,2.951-14.357c0.542-4.374,0.897-8.257,0.992-11.471c0.098-1.609,0.093-3.048,0.13-4.308
		c0.043-1.261,0.034-2.333,0.01-3.203c-0.009-1.75-0.013-2.684-0.013-2.684s0.27,0.896,0.775,2.573
		c0.252,0.843,0.543,1.887,0.833,3.128c0.31,1.239,0.668,2.669,0.949,4.291c0.152,0.812,0.312,1.668,0.479,2.565
		c0.126,0.904,0.259,1.852,0.396,2.838c0.068,0.496,0.139,1.002,0.21,1.518c0.046,0.518,0.093,1.045,0.141,1.582
		c0.085,1.076,0.212,2.194,0.271,3.354c0.28,4.634,0.196,9.92-0.51,15.689c-0.727,5.759-2.128,12.008-4.625,18.367
		c-0.583,1.604-1.375,3.155-2.086,4.768c-0.814,1.587-1.743,3.317-2.63,4.856c-0.44,0.71-0.884,1.423-1.329,2.14l-0.68,1.071
		l-0.043,0.067l-0.167,0.229l-0.104,0.14l-0.209,0.278l-0.42,0.559c-0.563,0.746-1.129,1.496-1.698,2.249l-0.86,1.132l-0.944,1.062
		c-2.475,2.89-5.262,5.591-8.291,8.044c-1.522,1.217-3.039,2.476-4.69,3.541c-0.818,0.547-1.638,1.096-2.46,1.646
		c-0.828,0.54-1.703,0.998-2.556,1.501c-6.853,3.987-14.419,6.868-22.207,8.703c-7.811,1.756-15.842,2.503-23.761,1.927
		c-1.026-0.1-2.05-0.198-3.071-0.297l-1.528-0.154l-0.762-0.079l-0.67-0.118c-0.888-0.16-1.774-0.319-2.657-0.479l-1.323-0.238
		l-0.55-0.099l-0.356-0.091l-0.711-0.183c-0.945-0.244-1.888-0.487-2.827-0.73c-0.934-0.26-1.883-0.446-2.783-0.797
		c-1.812-0.648-3.626-1.254-5.367-1.981c-6.998-2.881-13.164-6.859-18.33-11.248c-5.182-4.392-9.402-9.165-12.864-13.805
		c-3.47-4.647-6.031-9.268-8.167-13.371c-0.969-2.11-1.929-4.043-2.674-5.895c-0.72-1.866-1.431-3.538-1.957-5.109
		c-0.525-1.573-0.98-2.972-1.355-4.189c-0.364-1.218-0.612-2.266-0.845-3.108C49.51,175.422,49.282,174.516,49.282,174.516z"/>
</g>
<g>
	<path d="M96.359,45.628c0,0-0.369-0.361-0.933-1.03c-0.571-0.666-1.339-1.637-2.167-2.844c-0.832-1.205-1.728-2.644-2.598-4.225
		c-0.872-1.58-1.719-3.302-2.494-5.055c-1.54-3.512-2.739-7.172-3.367-10.035c-0.323-1.428-0.515-2.652-0.614-3.524
		c-0.108-0.868-0.122-1.385-0.122-1.385S84.435,17.89,85,18.558c0.573,0.665,1.342,1.636,2.171,2.843
		c1.677,2.405,3.551,5.77,5.085,9.283c0.763,1.759,1.452,3.55,2.021,5.262c0.571,1.712,1.02,3.347,1.341,4.775
		c0.324,1.428,0.517,2.651,0.618,3.522C96.345,45.111,96.359,45.628,96.359,45.628z"/>
</g>
<g>
	<path d="M87.93,7.16c0,0,0.077,0.181,0.222,0.521c0.145,0.338,0.318,0.858,0.458,1.536c0.285,1.338,0.385,3.437-0.665,5.748
		c-0.534,1.134-1.361,2.305-2.55,3.281c-0.318,0.24-0.583,0.448-0.995,0.69c-0.315,0.177-0.565,0.361-1.009,0.536
		c-0.825,0.374-1.616,0.587-2.513,0.718c-1.767,0.244-3.711-0.074-5.444-0.982c-0.864-0.458-1.659-1.067-2.358-1.785
		c-0.337-0.369-0.673-0.746-0.941-1.172c-0.143-0.207-0.287-0.414-0.401-0.637l-0.181-0.331l-0.09-0.166l-0.044-0.083l-0.022-0.042
		l-0.011-0.021l-0.057-0.124c-0.151-0.397-0.281-0.641-0.454-1.251c-0.18-0.553-0.257-1.036-0.326-1.531
		c-0.105-0.996-0.075-1.998,0.124-2.956c0.399-1.917,1.396-3.62,2.711-4.829c1.296-1.208,2.932-1.952,4.342-2.228
		c1.595-0.324,2.966-0.191,4.2,0.116c2.451,0.667,4.002,2.083,4.853,3.156c0.433,0.541,0.723,1.003,0.891,1.332
		C87.839,6.984,87.93,7.16,87.93,7.16z M87.93,7.16c0,0-0.095-0.172-0.274-0.496c-0.082-0.166-0.209-0.354-0.365-0.572
		c-0.144-0.226-0.334-0.467-0.572-0.716c-0.469-0.497-1.093-1.068-1.943-1.49c-0.834-0.434-1.87-0.747-2.993-0.777
		c-1.104-0.037-2.356,0.258-3.336,0.791c-1.15,0.597-2.007,1.444-2.649,2.47c-0.626,1.025-0.973,2.188-1.041,3.345
		c-0.022,0.58,0.025,1.153,0.122,1.714c0.077,0.276,0.126,0.571,0.202,0.766c0.017,0.157,0.242,0.623,0.375,0.96
		c-0.089-0.202-0.021-0.049-0.039-0.091l0.006,0.012l0.013,0.023l0.025,0.048l0.049,0.095l0.097,0.191
		c0.058,0.133,0.14,0.249,0.218,0.368c0.145,0.247,0.328,0.464,0.492,0.699c0.373,0.43,0.78,0.838,1.244,1.189
		c0.933,0.692,2.055,1.164,3.246,1.336c0.576,0.07,1.242,0.098,1.77,0.023c0.249,0.003,0.635-0.12,0.967-0.198
		c0.216-0.048,0.557-0.173,0.822-0.273c1.113-0.463,2.083-1.21,2.773-2.096c0.692-0.886,1.109-1.884,1.306-2.804
		c0.216-0.924,0.172-1.769,0.088-2.447c-0.041-0.342-0.105-0.643-0.188-0.897c-0.069-0.258-0.133-0.477-0.209-0.646
		C88.002,7.343,87.93,7.16,87.93,7.16z"/>
</g>
<g>
	<path fill="#5551A2" d="M12.738,86.092c0,0,0.49,2.802,0.987,7.669c0.061,0.608,0.125,1.25,0.193,1.921
		c0.088,0.662,0.18,1.355,0.275,2.077c0.207,1.441,0.367,2.986,0.568,4.628c0.104,0.821,0.188,1.665,0.278,2.532
		c0.125,0.874,0.253,1.772,0.386,2.694c0.268,1.84,0.483,3.767,0.743,5.769c0.303,1.993,0.619,4.069,0.945,6.218
		c0.286,2.142,0.667,4.343,1.072,6.597c0.206,1.126,0.385,2.268,0.561,3.423c0.187,1.153,0.448,2.312,0.671,3.486
		c0.5,2.341,0.828,4.747,1.417,7.155c1.02,4.837,2.15,9.798,3.464,14.788c0.324,1.247,0.648,2.5,0.974,3.757
		c0.311,1.26,0.723,2.497,1.062,3.755c0.354,1.254,0.709,2.51,1.064,3.768l1.176,3.742c1.509,5.01,3.267,9.938,4.994,14.802
		c0.459,1.206,0.917,2.407,1.372,3.603c0.442,1.201,0.862,2.407,1.352,3.575c0.941,2.354,1.878,4.68,2.835,6.958
		c1.887,4.57,3.867,8.937,5.776,13.09c0.969,2.068,1.915,4.089,2.874,6.022c0.911,1.967,1.886,3.812,2.778,5.624
		c1.821,3.595,3.534,6.905,5.117,9.818c1.561,2.933,2.984,5.475,4.166,7.584c2.372,4.21,3.828,6.653,3.828,6.653
		s-0.631-0.328-1.762-1.03c-1.124-0.706-2.764-1.772-4.733-3.27c-1.988-1.483-4.322-3.384-6.874-5.706
		c-2.57-2.31-5.311-5.072-8.181-8.216c-2.85-3.157-5.768-6.732-8.667-10.666c-2.846-3.964-5.74-8.25-8.371-12.898
		c-1.392-2.287-2.61-4.714-3.877-7.159c-1.278-2.44-2.419-4.984-3.591-7.54c-2.201-5.172-4.272-10.511-5.934-15.983l-1.243-4.103
		c-0.355-1.383-0.71-2.765-1.064-4.144c-0.746-2.749-1.292-5.534-1.836-8.293c-0.599-2.747-0.936-5.522-1.33-8.246
		c-0.438-2.716-0.642-5.434-0.866-8.095c-0.258-2.656-0.35-5.283-0.406-7.851c-0.09-2.563-0.098-5.071,0.012-7.514
		c0.059-4.875,0.586-9.472,1.017-13.678c0.331-2.103,0.615-4.111,0.947-6.013c0.165-0.949,0.325-1.873,0.481-2.771
		c0.186-0.902,0.38-1.777,0.582-2.621c0.401-1.688,0.748-3.26,1.127-4.701c0.185-0.718,0.361-1.408,0.53-2.066
		c0.203-0.644,0.397-1.258,0.581-1.841C11.687,88.736,12.738,86.092,12.738,86.092z"/>
</g>
<g>
	<path fill="#5551A2" d="M27.107,161.425c0,0,0.738,0.252,2.121,0.725c1.383,0.51,3.415,1.095,5.971,1.832
		c1.303,0.324,2.746,0.683,4.316,1.072c1.587,0.328,3.281,0.736,5.115,1.07c3.667,0.674,7.819,1.295,12.367,1.715
		c4.545,0.418,9.475,0.71,14.682,0.627c1.3,0.005,2.617-0.015,3.95-0.083c1.333-0.053,2.678-0.078,4.038-0.155
		c2.719-0.195,5.488-0.367,8.291-0.719c5.606-0.624,11.345-1.592,17.089-2.866l2.159-0.467c0.718-0.166,1.432-0.365,2.149-0.546
		c1.431-0.379,2.871-0.723,4.299-1.129c2.844-0.861,5.703-1.679,8.497-2.702c2.814-0.951,5.564-2.086,8.283-3.231
		c1.336-0.627,2.67-1.253,4-1.877l1.979-0.949l1.932-1.031c1.284-0.678,2.562-1.354,3.835-2.025
		c1.242-0.733,2.487-1.434,3.722-2.132c0.621-0.341,1.24-0.681,1.856-1.019c0.606-0.359,1.21-0.718,1.812-1.074
		c1.2-0.717,2.415-1.383,3.613-2.058c2.364-1.404,4.718-2.735,7.022-4.051c1.128-0.696,2.28-1.334,3.401-1.992
		c0.56-0.329,1.133-0.633,1.695-0.948c0.558-0.321,1.095-0.667,1.638-0.996c2.134-1.374,4.364-2.514,6.345-3.878
		c2.033-1.293,4.065-2.474,5.935-3.731c1.867-1.259,3.731-2.395,5.466-3.538c1.721-1.16,3.35-2.279,4.937-3.288
		c0.796-0.501,1.549-1.008,2.265-1.513c0.727-0.497,1.428-0.976,2.101-1.436c1.366-0.907,2.623-1.75,3.794-2.487
		c2.245-1.566,4.07-2.774,5.36-3.566c1.273-0.807,1.987-1.216,1.987-1.217l1.346,1.15c0,0-0.32,0.75-0.986,2.118
		c-0.65,1.382-1.666,3.366-3.044,5.856c-1.484,2.393-3.257,5.369-5.603,8.542c-1.167,1.592-2.468,3.24-3.837,4.997
		c-1.422,1.699-2.977,3.441-4.623,5.247c-3.327,3.571-7.17,7.243-11.538,10.788c-2.134,1.839-4.515,3.486-6.909,5.227
		c-1.195,0.873-2.486,1.634-3.766,2.437c-1.283,0.799-2.587,1.59-3.928,2.345c-5.424,2.914-11.257,5.514-17.398,7.526l-2.287,0.796
		l-2.328,0.706c-1.548,0.473-3.101,0.946-4.657,1.422c-3.161,0.794-6.254,1.795-9.442,2.471c-3.146,0.816-6.342,1.413-9.508,2.043
		c-1.588,0.289-3.186,0.515-4.769,0.772c-0.793,0.121-1.582,0.26-2.374,0.363l-2.377,0.281c-3.156,0.414-6.303,0.662-9.41,0.853
		c-1.554,0.085-3.103,0.104-4.635,0.157c-1.531,0.066-3.054,0.06-4.563,0.039c-6.031-0.01-11.845-0.38-17.305-1.066
		c-5.464-0.634-10.57-1.615-15.228-2.67c-1.16-0.281-2.296-0.556-3.407-0.824c-1.105-0.289-2.175-0.615-3.221-0.909
		c-2.096-0.565-4.045-1.257-5.882-1.85c-1.832-0.615-3.517-1.287-5.083-1.855c-1.537-0.652-2.948-1.252-4.223-1.793
		c-2.53-1.189-4.495-2.119-5.76-2.83c-1.291-0.686-1.979-1.052-1.979-1.052L27.107,161.425z"/>
</g>
<g>
	<path fill="#5551A2" d="M172.587,37.7c0,0,2.376,1.564,6.261,4.538c0.485,0.373,0.996,0.765,1.532,1.176
		c0.516,0.443,1.055,0.907,1.618,1.39c1.137,0.963,2.322,2.053,3.617,3.206c0.649,0.576,1.31,1.181,1.979,1.814
		c0.643,0.647,1.304,1.313,1.982,1.996c1.362,1.368,2.745,2.851,4.222,4.385c2.764,3.2,5.83,6.665,8.671,10.627
		c1.489,1.939,2.92,3.998,4.315,6.151c1.425,2.136,2.854,4.342,4.166,6.667c1.341,2.31,2.731,4.653,3.929,7.13
		c1.238,2.458,2.551,4.925,3.635,7.52c1.135,2.572,2.283,5.168,3.246,7.848c0.5,1.333,1.001,2.669,1.502,4.006l1.333,4.074
		c1.774,5.437,3.136,10.999,4.296,16.499c0.504,2.767,1.027,5.506,1.377,8.238c0.363,2.729,0.755,5.416,0.925,8.088
		c0.507,5.317,0.591,10.488,0.53,15.367c-0.122,4.886-0.465,9.488-0.991,13.708c-0.551,4.221-1.214,8.057-1.997,11.422
		c-0.76,3.365-1.584,6.261-2.364,8.614c-0.755,2.356-1.489,4.17-2.005,5.393c-0.524,1.223-0.854,1.854-0.854,1.854
		s-0.207-2.836-0.676-7.646c-0.24-2.406-0.53-5.306-0.931-8.603c-0.372-3.295-0.865-6.989-1.433-10.979
		c-0.307-1.996-0.564-4.067-0.946-6.201c-0.322-2.135-0.704-4.332-1.095-6.582c-0.815-4.498-1.695-9.211-2.767-14.038
		c-0.522-2.415-1.087-4.858-1.664-7.326c-0.268-1.238-0.616-2.467-0.941-3.705c-0.312-1.24-0.625-2.487-0.939-3.738
		c-1.371-4.976-2.755-10.022-4.389-14.993l-1.181-3.741c-0.429-1.234-0.858-2.467-1.287-3.698c-0.442-1.225-0.814-2.475-1.281-3.686
		c-0.453-1.216-0.905-2.429-1.355-3.637c-1.782-4.843-3.699-9.556-5.634-14.104c-0.898-2.311-2.008-4.471-2.939-6.676
		c-0.49-1.09-0.939-2.189-1.448-3.242c-0.518-1.047-1.024-2.085-1.502-3.126c-0.96-2.079-1.909-4.101-2.902-6.021
		c-0.963-1.948-1.895-3.831-2.788-5.637c-0.935-1.79-1.862-3.492-2.697-5.154c-0.42-0.832-0.83-1.642-1.228-2.429
		c-0.423-0.762-0.837-1.501-1.223-2.234c-0.776-1.461-1.53-2.819-2.187-4.119c-0.335-0.647-0.657-1.267-0.964-1.86
		c-0.33-0.589-0.644-1.151-0.942-1.685C173.791,40.277,172.587,37.7,172.587,37.7z"/>
</g>
<g>
	<path fill="#5551A2" d="M96.359,45.628c0,0-0.369-0.361-0.933-1.03c-0.571-0.666-1.339-1.637-2.167-2.844
		c-0.832-1.205-1.728-2.644-2.598-4.225c-0.872-1.58-1.719-3.302-2.494-5.055c-1.54-3.512-2.739-7.172-3.367-10.035
		c-0.323-1.428-0.515-2.652-0.614-3.524c-0.108-0.868-0.122-1.385-0.122-1.385S84.435,17.89,85,18.558
		c0.573,0.665,1.342,1.636,2.171,2.843c1.677,2.405,3.551,5.77,5.085,9.283c0.763,1.759,1.452,3.55,2.021,5.262
		c0.571,1.712,1.02,3.347,1.341,4.775c0.324,1.428,0.517,2.651,0.618,3.522C96.345,45.111,96.359,45.628,96.359,45.628z"/>
</g>
<g>
	<circle fill="#FFFFFF" cx="80.661" cy="10.581" r="8.033"/>
	<path fill="#5551A2" d="M87.93,7.16c0,0,0.077,0.181,0.222,0.521c0.145,0.338,0.318,0.858,0.458,1.536
		c0.285,1.338,0.385,3.437-0.665,5.748c-0.534,1.134-1.361,2.305-2.55,3.281c-0.318,0.24-0.583,0.448-0.995,0.69
		c-0.315,0.177-0.565,0.361-1.009,0.536c-0.825,0.374-1.616,0.587-2.513,0.718c-1.767,0.244-3.711-0.074-5.444-0.982
		c-0.864-0.458-1.659-1.067-2.358-1.785c-0.337-0.369-0.673-0.746-0.941-1.172c-0.143-0.207-0.287-0.414-0.401-0.637l-0.181-0.331
		l-0.09-0.166l-0.044-0.083l-0.022-0.042l-0.011-0.021l-0.057-0.124c-0.151-0.397-0.281-0.641-0.454-1.251
		c-0.18-0.553-0.257-1.036-0.326-1.531c-0.105-0.996-0.075-1.998,0.124-2.956c0.399-1.917,1.396-3.62,2.711-4.829
		c1.296-1.208,2.932-1.952,4.342-2.228c1.595-0.324,2.966-0.191,4.2,0.116c2.451,0.667,4.002,2.083,4.853,3.156
		c0.433,0.541,0.723,1.003,0.891,1.332C87.839,6.984,87.93,7.16,87.93,7.16z M87.93,7.16c0,0-0.095-0.172-0.274-0.496
		c-0.082-0.166-0.209-0.354-0.365-0.572c-0.144-0.226-0.334-0.467-0.572-0.716c-0.469-0.497-1.093-1.068-1.943-1.49
		c-0.834-0.434-1.87-0.747-2.993-0.777c-1.104-0.037-2.356,0.258-3.336,0.791c-1.15,0.597-2.007,1.444-2.649,2.47
		c-0.626,1.025-0.973,2.188-1.041,3.345c-0.022,0.58,0.025,1.153,0.122,1.714c0.077,0.276,0.126,0.571,0.202,0.766
		c0.017,0.157,0.242,0.623,0.375,0.96c-0.089-0.202-0.021-0.049-0.039-0.091l0.006,0.012l0.013,0.023l0.025,0.048l0.049,0.095
		l0.097,0.191c0.058,0.133,0.14,0.249,0.218,0.368c0.145,0.247,0.328,0.464,0.492,0.699c0.373,0.43,0.78,0.838,1.244,1.189
		c0.933,0.692,2.055,1.164,3.246,1.336c0.576,0.07,1.242,0.098,1.77,0.023c0.249,0.003,0.635-0.12,0.967-0.198
		c0.216-0.048,0.557-0.173,0.822-0.273c1.113-0.463,2.083-1.21,2.773-2.096c0.692-0.886,1.109-1.884,1.306-2.804
		c0.216-0.924,0.172-1.769,0.088-2.447c-0.041-0.342-0.105-0.643-0.188-0.897c-0.069-0.258-0.133-0.477-0.209-0.646
		C88.002,7.343,87.93,7.16,87.93,7.16z"/>
</g>
<text transform="matrix(1 0 0 1 256.6841 149.3672)" fill="#5551A2" font-family="'ImpressBT-Regular'" font-size="82.6619">Glaze Hub</text>
</svg>
